<?xml version="1.0" encoding="UTF-8"?>
<svg enable-background="new 0 0 512 512" version="1.1" viewBox="0 0 512 512" xml:space="preserve" xmlns="http://www.w3.org/2000/svg">
<path d="M479.095,384.758H32.905L0,37.061h512L479.095,384.758z" fill="#93D7F4"/>
<polygon points="512 37.061 256 37.061 256 384.76 479.1 384.76" fill="#78B9EB"/>
<path d="m278.04 291.28c-6.691 0-12.982-2.606-17.714-7.338l-70.852-70.852c-4.731-4.731-7.338-11.022-7.338-17.714 0-6.691 2.606-12.982 7.338-17.714l70.852-70.852c4.732-4.731 11.022-7.338 17.714-7.338s12.982 2.606 17.714 7.338l70.852 70.852c4.731 4.731 7.337 11.022 7.337 17.714 0 6.691-2.606 12.982-7.337 17.714l-70.852 70.852c-4.732 4.732-11.023 7.338-17.714 7.338z" fill="#FFF8D5"/>
<path d="m295.76 106.81c-4.732-4.731-11.022-7.338-17.714-7.338s-12.982 2.606-17.714 7.338l-4.332 4.332v168.47l4.332 4.332c4.732 4.731 11.022 7.338 17.714 7.338s12.982-2.606 17.714-7.338l70.852-70.852c4.731-4.731 7.337-11.022 7.337-17.714 0-6.691-2.606-12.982-7.337-17.714l-70.852-70.853z" fill="#FFF1AB"/>
<path d="m479.1 384.76h-446.19l-20.957-221.44h488.1l-20.957 221.44z" fill="#f90"/>
<polygon points="256 384.76 479.1 384.76 500.05 163.31 256 163.31" fill="#FF5D03"/>
<path d="m230.95 384.76h-100.2c-13.813 0-25.05-11.238-25.05-25.05v-100.2c0-13.813 11.238-25.05 25.05-25.05h100.2c13.813 0 25.05 11.238 25.05 25.05v100.2c0 13.813-11.237 25.05-25.05 25.05z" fill="#FFC42D"/>
<path d="m308.92 384.75c-3.581 0-7.214-0.771-10.661-2.399l-90.6-42.801c-6.05-2.858-10.625-7.901-12.882-14.2s-1.926-13.099 0.932-19.149l42.802-90.6c2.858-6.05 7.901-10.625 14.2-12.882 6.3-2.258 13.1-1.926 19.15 0.933l90.599 42.801c6.049 2.858 10.625 7.9 12.882 14.199s1.926 13.1-0.933 19.15l-42.801 90.599c-4.271 9.043-13.294 14.348-22.688 14.349z" fill="#FFE1B4"/>
<path d="m362.46 246.46-90.599-42.801c-5.009-2.368-10.532-2.996-15.86-1.863v160.6l42.258 19.963c3.446 1.628 7.079 2.4 10.661 2.399 9.394-1e-3 18.417-5.306 22.69-14.349l42.801-90.599c2.859-6.05 3.19-12.852 0.933-19.15-2.258-6.298-6.835-11.341-12.884-14.199z" fill="#FFCB7D"/>
<path d="m189.48 177.66c-4.731 4.731-7.338 11.022-7.338 17.714 0 6.691 2.606 12.982 7.338 17.714l70.852 70.852c4.732 4.731 11.022 7.338 17.714 7.338s12.982-2.606 17.714-7.338l70.852-70.852c4.731-4.731 7.337-11.022 7.337-17.714 0-6.691-2.606-12.982-7.337-17.714l-14.351-14.351h-148.43l-14.351 14.351z" fill="#FFC42D"/>
<path d="m260.33 283.94c4.732 4.731 11.022 7.338 17.714 7.338s12.982-2.606 17.714-7.338l70.852-70.852c4.731-4.731 7.337-11.022 7.337-17.714 0-6.691-2.606-12.982-7.337-17.714l-14.351-14.351h-96.26v116.3l4.331 4.332z" fill="#f90"/>
<polygon points="481.93 37.061 451.74 354.7 60.255 354.7 30.302 37.061 0 37.061 32.905 384.76 479.1 384.76 512 37.061" fill="#D1E7F8"/>
<polygon points="451.74 354.7 256 354.7 256 384.76 479.1 384.76 512 37.061 481.93 37.061" fill="#B3D8F4"/>
<path d="m425.34 474.94h-338.68c-30.388 0-55.111-24.723-55.111-55.111v-65.131h448.9v65.131c1e-3 30.389-24.722 55.111-55.11 55.111z" fill="#D1E7F8"/>
<path d="M256,354.698v120.241h169.34c30.388,0,55.111-24.723,55.111-55.111v-65.131H256z" fill="#B3D8F4"/>
</svg>
