<?xml version="1.0" encoding="UTF-8"?>
<svg width="512" height="512" viewBox="0 0 58 47" xmlns="http://www.w3.org/2000/svg">
<g fill="none" fill-rule="evenodd">
<g fill-rule="nonzero">
<path id="Shape" d="m34 5v-3c0.0032948-1.1032 0.8968-1.9967 2-2h15c1.1032 0.0032948 1.9967 0.8968 2 2v4.58z" fill="#3f5c6c"/>
<path id="Shape" d="m5 5v-3c0.0032948-1.1032 0.8968-1.9967 2-2h15c1.1032 0.0032948 1.9967 0.8968 2 2v4.58z" fill="#3f5c6c"/>
<path id="Shape" d="m4.63 15-.63-6h21l-.63 6" fill="#3b97d3"/>
<path id="Shape" d="m25 9h-21c-1.1046 0-2-0.89543-2-2v-1.857c-0.0013234-0.55523 0.22823-1.086 0.6337-1.4653 0.40548-0.37931 0.95039-0.57298 1.5043-0.53467l21 1.725c1.0503 0.072644 1.8645 0.94715 1.862 2v0.132c0 1.1046-0.89543 2-2 2z" fill="#547580"/>
<path id="Shape" d="m4.28 33-1.57-16.92c-0.022376-0.27878 0.073018-0.5542 0.26303-0.75941 0.19002-0.20522 0.45729-0.32148 0.73697-0.32059h21.58c0.27968-8.965e-4 0.54695 0.11537 0.73697 0.32059 0.19002 0.20522 0.28541 0.48063 0.26303 0.75941l-1.57 16.92" fill="#e4c05c"/>
<path id="Shape" d="m19.38 20.71v.01c-1.44 1.37-2.52.32-3.96 1.76-1.47 1.47-.37 2.57-1.84 4.04-1.44 1.44-2.52.39-3.96 1.76-1.22-1.91-.6-4.9 1.58-7.08 2.43-2.43 5.87-2.92 7.7-1.1.1822281.184814.3432276.3894176.48.61z" fill="#a56a43"/>
<path id="Shape" d="m17.8 27.8c-2.43 2.43-5.87 2.92-7.7 1.1-.18222808-.184814-.34322759-.3894176-.48-.61v-.01c1.44-1.37 2.52-.32 3.96-1.76 1.47-1.47.37-2.57 1.84-4.04 1.44-1.44 2.52-.39 3.96-1.76 1.22 1.91.6 4.9-1.58 7.08z" fill="#805333"/>
<path id="Shape" d="m33.63 15-.63-6h21l-.63 6" fill="#3b97d3"/>
<path id="Shape" d="m54 9h-21c-1.1046 0-2-0.89543-2-2v-1.857c-0.0013234-0.55523 0.22823-1.086 0.6337-1.4653 0.40548-0.37931 0.95039-0.57298 1.5043-0.53467l21 1.725c1.0503 0.072644 1.8645 0.94715 1.862 2v0.132c0 1.1046-0.89543 2-2 2z" fill="#547580"/>
<path id="Shape" d="m33.28 33-1.57-16.92c-0.022376-0.27878 0.073018-0.5542 0.26303-0.75941 0.19002-0.20522 0.45729-0.32148 0.73697-0.32059h21.58c0.27968-8.965e-4 0.54695 0.11537 0.73697 0.32059 0.19002 0.20522 0.28541 0.48063 0.26303 0.75941l-1.57 16.92" fill="#e4c05c"/>
<path id="Shape" d="m48.38 20.71v.01c-1.44 1.37-2.52.32-3.96 1.76-1.47 1.47-.37 2.57-1.84 4.04-1.44 1.44-2.52.39-3.96 1.76-1.22-1.91-.6-4.9 1.58-7.08 2.43-2.43 5.87-2.92 7.7-1.1.1822281.184814.3432276.3894176.48.61z" fill="#a56a43"/>
<path id="Shape" d="m46.8 27.8c-2.43 2.43-5.87 2.92-7.7 1.1-.1822281-.184814-.3432276-.3894176-.48-.61v-.01c1.44-1.37 2.52-.32 3.96-1.76 1.47-1.47.37-2.57 1.84-4.04 1.44-1.44 2.52-.39 3.96-1.76 1.22 1.91.6 4.9-1.58 7.08z" fill="#805333"/>
<path id="Shape" d="m9 37h-7c-1.1032-0.0032948-1.9967-0.8968-2-2-0.0028231-0.53059 0.21014-1.0395 0.59-1.41 0.37046-0.37986 0.87941-0.59282 1.41-0.59h54c1.1032 0.0032948 1.9967 0.8968 2 2-0.0081672 1.1012-0.89883 1.9918-2 2z" fill="#a56a43"/>
<g fill="#cb8252">
<path id="a" d="m15 37h10l-1.68 8.39c-0.18595 0.93531-1.0064 1.6092-1.96 1.61h-13.72c-0.95361-7.66e-4 -1.774-0.67469-1.96-1.61l-1.68-8.39z"/>
<path d="m50.36 47h-13.72c-0.95375 3.778e-4 -1.7751-0.67275-1.962-1.608l-1.678-8.392h21l-1.678 8.392c-0.18693 0.93525-1.0083 1.6084-1.962 1.608z"/>
</g>
</g>
</g>
</svg>
