<?xml version="1.0" encoding="UTF-8"?>
<svg version="1.1" viewBox="0 0 319.65 319.65" xmlns="http://www.w3.org/2000/svg">
<path d="m157.42 71.99c-53.6-4.8-94.8-40.8-130 22.4-14.8 26.4-25.2 71.6-27.2 108-4 88.4 46 64 92.8 20 29.2-27.6 104.4-27.6 133.6 0 46.8 44.4 96.8 68.4 92.8-20-1.6-36.4-12-81.2-27.2-108-35.2-63.2-76.4-26.8-130-22.4h-4.8z" fill="#4A566E"/>
<path d="m81.825 98.79c9.2 0 16.4 7.6 16.4 16.4v5.6h5.6c9.2 0 16.4 7.6 16.4 16.4 0 9.2-7.6 16.4-16.4 16.4h-5.6v6c0 9.2-7.6 16.4-16.4 16.4-9.2 0-16.4-7.6-16.4-16.4v-5.6h-5.6c-9.2 0-16.4-7.6-16.4-16.4 0-9.2 7.6-16.4 16.4-16.4h5.6v-5.6c0-9.6 7.6-16.8 16.4-16.8z" fill="#fff"/>
<path d="m247.42 137.19c0-8 6.4-14.4 14.4-14.4s14.4 6.4 14.4 14.4-6.4 14.4-14.4 14.4c-8 0.4-14.4-6.4-14.4-14.4zm-15.2-44c8 0 14.4 6.4 14.4 14.4s-6.4 14.4-14.4 14.4-14.4-6.4-14.4-14.4c0-7.6 6.4-14.4 14.4-14.4zm-44 44c0-8 6.4-14.4 14.4-14.4s14.4 6.4 14.4 14.4-6.4 14.4-14.4 14.4c-8 0.4-14.4-6.4-14.4-14.4zm44 15.2c8 0 14.4 6.4 14.4 14.4s-6.4 14.4-14.4 14.4-14.4-6.4-14.4-14.4 6.4-14.4 14.4-14.4z" fill="#3ABFC8"/></svg>
