<svg xmlns="http://www.w3.org/2000/svg" viewBox="0 0 512 512"><path fill="#a6692d" d="M15 512h272c8 0 15-7 15-15v-16c0-17-13-30-30-30v-18c0-24-19-43-43-43H73c-24 0-43 19-43 43v18c-17 0-30 13-30 30v16c0 8 7 15 15 15zm0 0M188 330a30 30 0 1048-36l-91-120a30 30 0 10-48 37zm0 0M403 168a30 30 0 0048-36L361 12a30 30 0 10-48 36zm0 0M338 255c22-17 38-37 49-59L282 56c-24 4-49 15-71 31-22 17-39 38-49 60l105 139c24-4 48-14 71-31zm0 0M378 259a202 202 0 01-48 36l20 26 48-36zm0 0M416 309l-48 36 90 120a30 30 0 1048-36zm0 0"/></svg>