<svg viewBox="0 0 512 512" xmlns="http://www.w3.org/2000/svg" fill="#808"><path d="M106 391c50 0 105-27 105-75v-15h-34l-45-161c45-8 65-18 109-20v309l-125 83h280l-125-83V120c44 2 65 12 109 20l-45 161h-34v15c0 48 55 75 105 75s106-27 106-75v-15h-35l-43-154c21 2 47 3 78 3v-30c-90 0-128-28-161-52-24-17-46-34-80-37V0h-30v31c-34 3-56 20-80 37-33 24-71 52-161 52v30c31 0 57-1 78-3L35 301H0v15c0 48 57 75 106 75zm0-30c-32 0-60-13-71-30h142c-11 17-39 30-71 30zm190 121h-80l40-27zm110-121c-32 0-60-13-71-30h142c-11 17-39 30-71 30zm-40-60l40-141 40 141zM179 92c24-18 44-32 77-32s53 14 77 32l15 11a335 335 0 00-184 0l15-11zm-73 68l40 141H66z"/></svg>